<svg xmlns="http://www.w3.org/2000/svg" viewBox="0 0 32 40" x="0px" y="0px"><title>web icon expanded</title><g data-name="Layer 33"><path d="M16.79,22H15.21a5.57,5.57,0,0,1-5.56-5.56V6.72a5.57,5.57,0,0,1,5.56-5.56h1.58a5.57,5.57,0,0,1,5.56,5.56v9.72A5.57,5.57,0,0,1,16.79,22ZM15.21,3.16a3.57,3.57,0,0,0-3.56,3.56v9.72A3.57,3.57,0,0,0,15.21,20h1.58a3.57,3.57,0,0,0,3.56-3.56V6.72a3.57,3.57,0,0,0-3.56-3.56Z"/><path d="M18.2,24.78H13.83a8.46,8.46,0,0,1-8-5.73,1,1,0,1,1,1.89-.64,6.46,6.46,0,0,0,6.12,4.38H18.2a6.47,6.47,0,0,0,6.09-4.3,1,1,0,0,1,1.88.67A8.48,8.48,0,0,1,18.2,24.78Z"/><path d="M16,30.84a1,1,0,0,1-1-1V23.78a1,1,0,0,1,2,0v6.06A1,1,0,0,1,16,30.84Z"/><path d="M23.78,30.84H8.22a1,1,0,0,1,0-2H23.78a1,1,0,0,1,0,2Z"/><path d="M2,31a1,1,0,0,1-.71-1.71l28-27.84a1,1,0,0,1,1.41,1.42l-28,27.84A1,1,0,0,1,2,31Z"/></g><text x="0" y="47" fill="#000000" font-size="5px" font-weight="bold" font-family="'Helvetica Neue', Helvetica, Arial-Unicode, Arial, Sans-serif">Created by Dhimas Aura Bhagastama</text><text x="0" y="52" fill="#000000" font-size="5px" font-weight="bold" font-family="'Helvetica Neue', Helvetica, Arial-Unicode, Arial, Sans-serif">from the Noun Project</text></svg>